<?xml version="1.0" standalone="no"?>
<!DOCTYPE svg PUBLIC "-//W3C//DTD SVG 20010904//EN"
 "http://www.w3.org/TR/2001/REC-SVG-20010904/DTD/svg10.dtd">
<svg version="1.0" xmlns="http://www.w3.org/2000/svg"
 width="760.000000pt" height="451.000000pt" viewBox="0 0 760.000000 451.000000"
 preserveAspectRatio="xMidYMid meet">

<g transform="translate(0.000000,451.000000) scale(0.100000,-0.100000)"
fill="#000000" stroke="none">
<path d="M343 4030 c-68 -41 -63 87 -61 -1653 l3 -1574 28 -36 c54 -71 13 -67
760 -67 l675 0 26 -35 c21 -26 42 -39 94 -55 60 -19 81 -21 200 -14 72 3 132
10 132 15 0 5 24 9 54 9 50 0 54 -2 61 -27 10 -41 59 -124 105 -175 154 -175
443 -211 646 -80 98 63 158 144 213 284 9 25 16 28 54 28 24 0 48 -5 54 -11
13 -13 133 -13 608 1 182 5 667 17 1080 26 627 14 751 19 760 31 7 10 25 13
54 11 l44 -3 14 -55 c43 -175 161 -306 328 -365 98 -35 231 -35 329 0 173 61
294 197 329 371 l14 69 55 3 c81 4 193 63 233 122 l30 45 0 530 c0 498 -1 532
-19 565 -37 71 -52 80 -129 80 -54 0 -118 13 -291 61 -121 34 -259 72 -306 85
-162 44 -178 51 -214 89 -74 78 -57 111 77 142 100 24 231 78 223 92 -3 4 -40
11 -83 15 -43 4 -139 15 -213 26 -74 10 -214 26 -310 35 -96 9 -177 18 -180
20 -23 14 -565 39 -855 39 -377 1 -461 -6 -654 -56 -101 -26 -120 -34 -107
-43 26 -20 19 -32 -31 -51 -273 -99 -583 -282 -843 -499 l-85 -70 -165 3
c-179 3 -282 -5 -460 -37 -144 -26 -414 -100 -485 -132 -29 -13 -106 -39 -116
-39 -5 0 -9 479 -9 1100 0 1216 4 1140 -63 1180 -31 19 -56 20 -802 20 -746 0
-771 -1 -802 -20z m801 -37 c9 -21 -16 -46 -37 -37 -17 6 -23 35 -10 47 12 13
41 7 47 -10z m38 -8 c0 -5 -5 -11 -11 -13 -6 -2 -11 4 -11 13 0 9 5 15 11 13
6 -2 11 -8 11 -13z m115 -311 c40 -30 45 -75 11 -111 -22 -24 -62 -31 -73 -13
-9 14 -131 13 -171 -2 -36 -13 -88 2 -98 29 -15 39 22 82 72 83 9 1 33 9 52
20 25 13 55 19 104 20 59 0 74 -4 103 -26z m-438 -203 c23 -15 6 -35 -30 -35
-28 -1 -35 -5 -37 -25 -5 -30 13 -41 53 -34 34 7 46 19 38 41 -7 17 13 32 43
32 32 0 56 -33 52 -72 -3 -30 -6 -33 -41 -36 -21 -2 -44 1 -51 7 -7 6 -17 6
-26 1 -30 -19 -78 -11 -99 16 -27 35 -26 55 4 88 24 26 66 34 94 17z m367 -18
c19 -20 27 -24 36 -15 18 18 45 15 67 -7 18 -18 19 -18 24 -1 3 13 14 18 43
18 52 0 64 -12 64 -65 0 -37 -3 -44 -17 -41 -12 2 -19 14 -21 36 -5 46 -32 43
-32 -3 0 -41 -25 -49 -40 -12 -6 15 -9 17 -9 6 -1 -19 -21 -29 -57 -29 -16 0
-30 10 -43 31 -10 17 -22 26 -25 21 -4 -6 -2 -13 4 -17 15 -9 12 -35 -4 -35
-7 0 -19 7 -26 15 -7 8 -19 15 -26 15 -8 0 -14 -7 -14 -15 0 -8 -7 -15 -15
-15 -12 0 -15 14 -15 70 l0 70 40 0 c32 0 47 -6 66 -27z m297 -4 c21 -19 21
-21 5 -33 -25 -18 -22 -43 4 -50 30 -7 10 -29 -23 -24 -18 2 -25 11 -29 38 -4
20 -10 41 -14 48 -4 7 -2 12 3 12 6 0 11 7 11 15 0 21 17 19 43 -6z m-463 -15
c0 -8 -7 -17 -15 -20 -9 -4 -15 -19 -15 -40 0 -27 -4 -34 -20 -34 -18 0 -20 7
-20 54 l0 54 35 0 c24 0 35 -5 35 -14z m890 -1013 l0 -709 -24 -6 c-14 -3 -44
-25 -67 -49 -37 -36 -49 -62 -89 -176 l-46 -133 -64 -2 c-36 -1 -282 -3 -547
-4 l-483 -2 0 -160 0 -160 458 0 c251 0 494 -3 540 -7 l82 -6 0 -113 0 -114
-632 0 c-614 0 -634 1 -666 20 -18 11 -41 34 -52 52 -20 32 -20 53 -20 1156
l0 1122 805 0 805 0 0 -709z m3070 154 c0 -3 -7 -34 -15 -68 -18 -77 -131
-570 -140 -614 -5 -26 -12 -33 -31 -33 -22 0 -24 4 -24 54 0 81 -60 153 -129
155 -16 1 -21 5 -17 16 4 11 1 13 -12 6 -9 -5 -24 -12 -32 -15 -8 -3 -22 -10
-30 -15 -26 -15 -233 -79 -275 -84 -22 -3 -58 -13 -80 -23 -35 -16 -37 -19
-17 -22 13 -2 44 4 69 12 26 9 52 16 59 16 6 0 17 -21 23 -47 7 -27 14 -56 17
-65 4 -15 -1 -18 -28 -18 -19 0 -38 -4 -43 -9 -6 -5 -91 -11 -191 -14 l-181
-6 5 25 c3 18 0 24 -14 24 -32 0 -50 -16 -36 -33 10 -12 6 -15 -25 -21 -21 -3
-48 -6 -60 -6 -30 0 -40 36 -18 60 24 26 13 94 -14 85 -15 -5 -21 11 -42 127
-14 73 -24 138 -22 143 3 8 122 83 213 134 238 132 477 211 700 231 102 9 390
12 390 5z m446 -30 c148 -14 274 -27 280 -29 7 -3 4 -51 -12 -158 -13 -84 -29
-198 -36 -253 -13 -100 -13 -100 -60 -147 l-47 -46 -98 -6 c-54 -4 -170 -13
-258 -20 -88 -8 -162 -12 -164 -10 -5 5 8 111 43 364 47 330 47 330 66 330 9
0 138 -11 286 -25z m534 -815 c0 -5 -69 -61 -152 -124 -84 -64 -201 -153 -260
-199 -59 -45 -158 -121 -221 -169 l-114 -87 -153 -20 c-85 -11 -156 -19 -158
-16 -2 2 3 32 11 67 9 35 28 122 43 193 43 207 72 337 76 341 17 17 928 31
928 14z m-957 -17 c5 -8 -8 -79 -43 -243 -10 -47 -30 -143 -45 -215 -15 -71
-33 -135 -39 -141 -6 -6 -69 -19 -141 -28 -171 -21 -594 -78 -872 -117 -122
-17 -228 -29 -236 -26 -25 9 -191 279 -214 348 -22 65 -53 228 -53 281 0 26 1
26 88 33 48 3 166 13 262 20 96 8 247 19 335 25 88 6 216 15 285 20 69 5 231
16 360 25 129 8 244 17 255 19 38 6 54 6 58 -1z m-2865 -69 c69 -10 58 -30
-67 -127 -52 -41 -73 -50 -124 -58 -138 -20 -177 -4 -177 69 0 49 28 76 112
108 64 25 122 26 256 8z m-1120 -438 c4 -28 4 -28 18 -7 18 25 46 27 68 5 15
-14 16 -14 16 2 0 14 7 16 47 11 37 -4 50 -1 59 11 11 15 14 15 33 -2 15 -13
18 -23 11 -30 -13 -13 -13 -46 0 -46 16 0 11 -20 -6 -27 -21 -8 -43 21 -45 56
-1 18 -4 15 -8 -12 -8 -47 -25 -53 -29 -9 -3 34 -22 45 -22 13 0 -49 -24 -67
-40 -28 -6 15 -9 17 -9 6 -1 -16 -20 -29 -42 -29 -6 0 -21 12 -35 27 l-26 28
7 -28 c8 -32 -9 -37 -27 -7 -16 26 -24 25 -31 -1 -11 -41 -32 -14 -35 45 l-3
57 48 -3 c45 -3 48 -5 51 -32z m1867 -175 c122 -65 173 -159 163 -301 -4 -54
-12 -79 -37 -119 -39 -64 -90 -112 -114 -107 -9 2 -15 0 -12 -4 11 -18 -97
-43 -161 -37 -79 8 -134 35 -195 98 -59 60 -74 102 -74 204 0 68 4 88 29 135
33 65 72 101 141 135 85 41 178 40 260 -4z m3650 0 c101 -51 156 -136 163
-251 4 -69 1 -83 -26 -142 -31 -68 -104 -143 -130 -133 -7 2 -11 1 -8 -4 9
-14 -81 -41 -134 -41 -80 0 -145 26 -207 84 -55 50 -82 107 -90 188 -6 66 14
162 40 195 105 131 260 172 392 104z"/>
<path d="M1150 3425 c0 -8 9 -15 20 -15 11 0 20 7 20 15 0 8 -9 15 -20 15 -11
0 -20 -7 -20 -15z"/>
<path d="M1060 2504 c-65 -14 -161 -65 -234 -123 -32 -26 -48 -31 -95 -32 -33
0 -91 -12 -141 -29 -82 -27 -83 -28 -42 -29 23 -1 42 -6 42 -11 0 -17 -63 -51
-87 -47 -28 5 -33 -9 -33 -92 0 -85 16 -105 82 -99 40 3 47 0 77 -34 57 -65
149 -59 189 12 l17 30 115 1 c63 1 202 4 308 8 l194 6 13 -30 c21 -50 51 -70
105 -70 40 0 54 5 79 29 16 15 32 38 35 50 3 11 20 28 38 36 l33 15 3 134 c2
94 -1 138 -10 148 -6 8 -39 28 -72 45 -66 33 -98 57 -91 68 6 9 -268 30 -375
29 -47 -1 -114 -7 -150 -15z m385 -204 c11 -5 15 -9 9 -9 -5 -1 -19 -9 -30
-19 -82 -76 -184 -127 -200 -100 -4 7 -10 5 -16 -6 -6 -11 -23 -16 -51 -17
-23 0 -82 -6 -132 -13 -63 -9 -94 -10 -103 -3 -23 19 -53 88 -50 115 3 26 6
27 78 35 205 20 466 30 495 17z m-694 -171 c22 -15 29 -28 29 -54 0 -27 -6
-36 -31 -49 -78 -39 -135 61 -61 107 34 21 29 21 63 -4z m850 5 c27 -14 30
-19 27 -57 -2 -34 -8 -44 -30 -55 -23 -11 -32 -10 -58 3 -25 13 -30 21 -30 53
0 30 5 40 28 54 15 9 28 17 30 17 2 1 17 -6 33 -15z"/>
<path d="M702 2078 c6 -18 28 -21 28 -4 0 9 -7 16 -16 16 -9 0 -14 -5 -12 -12z"/>
<path d="M1560 2074 c0 -9 5 -14 12 -12 18 6 21 28 4 28 -9 0 -16 -7 -16 -16z"/>
<path d="M4633 2495 c-7 -12 -16 -13 -47 -4 -21 6 -49 8 -63 4 -20 -5 -24 -10
-19 -30 6 -22 3 -24 -31 -27 -35 -3 -38 -5 -38 -35 0 -17 -3 -35 -7 -39 -15
-14 -8 -46 11 -51 11 -3 22 -14 25 -26 5 -20 6 -20 33 9 15 16 27 32 26 35 -6
18 35 36 70 32 41 -6 50 -20 15 -25 l-23 -3 25 -14 c17 -10 25 -11 28 -2 5 16
22 14 22 -3 0 -7 7 -19 15 -26 9 -7 13 -21 10 -31 -7 -21 19 -27 31 -8 3 6 17
9 31 6 18 -3 30 3 49 29 16 20 23 38 18 46 -5 7 -7 26 -5 41 2 22 -2 30 -18
34 -12 3 -21 15 -23 31 -2 17 -10 28 -23 31 -11 2 -31 12 -44 22 -28 23 -57
24 -68 4z"/>
<path d="M4500 2269 c0 -24 23 -21 28 4 2 10 -3 17 -12 17 -10 0 -16 -9 -16
-21z"/>
<path d="M4590 2270 c0 -11 7 -20 15 -20 8 0 15 9 15 20 0 11 -7 20 -15 20 -8
0 -15 -9 -15 -20z"/>
<path d="M4532 2248 c-17 -17 -15 -38 3 -38 10 0 14 9 13 25 -1 14 -3 25 -3
25 -1 0 -6 -5 -13 -12z"/>
<path d="M4597 2179 c-9 -6 -27 -7 -38 -4 -15 5 -20 3 -17 -6 6 -20 40 -22 63
-5 24 17 18 29 -8 15z"/>
<path d="M3763 2124 c-3 -9 7 -42 22 -75 25 -51 32 -59 57 -59 15 0 28 4 28
10 0 5 -14 39 -32 75 -33 65 -61 84 -75 49z"/>
<path d="M1000 1200 c0 -5 7 -10 15 -10 8 0 15 5 15 10 0 6 -7 10 -15 10 -8 0
-15 -4 -15 -10z"/>
<path d="M2768 804 c-62 -33 -16 -115 47 -86 22 10 25 17 23 57 -1 26 -5 40
-9 34 -5 -9 -11 -10 -21 -2 -9 8 -20 7 -40 -3z"/>
<path d="M6470 1030 c0 -5 5 -10 10 -10 6 0 10 5 10 10 0 6 -4 10 -10 10 -5 0
-10 -4 -10 -10z"/>
<path d="M6170 871 c0 -5 5 -13 10 -16 6 -3 10 -2 10 4 0 5 -4 13 -10 16 -5 3
-10 2 -10 -4z"/>
<path d="M6412 804 c-43 -30 -21 -94 32 -94 17 0 56 34 56 49 0 13 -45 61 -56
61 -5 0 -20 -7 -32 -16z"/>
<path d="M3596 3100 c-37 -12 -63 -35 -98 -89 -61 -96 -26 -233 75 -291 47
-27 60 -30 127 -29 41 1 83 -1 93 -5 13 -6 17 -4 17 10 0 11 16 42 36 71 71
103 55 231 -39 305 -36 29 -49 33 -111 35 -39 1 -84 -2 -100 -7z m187 -114 c9
-7 17 -16 17 -20 0 -4 -27 -43 -61 -87 -55 -73 -62 -78 -82 -68 -12 7 -24 15
-27 19 -3 4 -20 15 -37 24 -36 18 -40 31 -19 59 17 22 22 22 59 -9 29 -24 31
-24 40 -7 15 27 78 103 86 103 3 0 14 -7 24 -14z"/>
</g>
</svg>
