<?xml version="1.0" standalone="no"?>
<!DOCTYPE svg PUBLIC "-//W3C//DTD SVG 20010904//EN"
 "http://www.w3.org/TR/2001/REC-SVG-20010904/DTD/svg10.dtd">
<svg version="1.0" xmlns="http://www.w3.org/2000/svg"
 width="961.000000pt" height="496.000000pt" viewBox="0 0 961.000000 496.000000"
 preserveAspectRatio="xMidYMid meet">

<g transform="translate(0.000000,496.000000) scale(0.100000,-0.100000)"
fill="#000000" stroke="none">
<path d="M4180 4609 c-126 -5 -180 -12 -228 -28 -35 -11 -93 -26 -130 -31 -37
-6 -99 -22 -139 -35 -39 -14 -82 -25 -95 -25 -13 0 -42 -9 -63 -20 -22 -11
-67 -28 -100 -37 -33 -9 -87 -29 -120 -45 -33 -15 -67 -28 -75 -28 -9 0 -31
-11 -50 -24 -19 -12 -53 -29 -75 -36 -22 -7 -65 -26 -96 -42 -31 -15 -62 -28
-68 -28 -6 0 -42 -15 -79 -34 -37 -18 -105 -53 -152 -76 -47 -24 -96 -51 -110
-60 -14 -10 -39 -21 -56 -24 -18 -4 -40 -16 -49 -26 -10 -11 -34 -25 -54 -31
-20 -6 -47 -19 -61 -29 -49 -32 -179 -100 -194 -100 -8 0 -31 -13 -49 -30 -19
-16 -39 -30 -44 -30 -11 0 -296 -142 -315 -157 -7 -6 -36 -18 -63 -27 -28 -9
-66 -27 -86 -40 -19 -13 -55 -30 -80 -36 -24 -6 -54 -18 -67 -27 -25 -15 -128
-60 -227 -98 -33 -13 -84 -33 -113 -44 -29 -12 -63 -21 -76 -21 -12 0 -44 -11
-71 -25 -26 -14 -71 -30 -99 -36 -28 -6 -76 -21 -107 -35 -41 -17 -75 -24
-121 -24 -84 0 -173 -17 -223 -42 -24 -13 -74 -24 -124 -29 -96 -10 -161 -26
-161 -39 0 -18 80 -31 265 -41 263 -15 403 -8 480 24 41 16 88 26 146 30 52 4
107 14 140 27 32 13 93 25 151 30 76 7 103 13 127 31 20 15 54 25 96 30 35 5
89 20 118 34 30 14 64 25 76 25 31 0 236 68 275 91 17 10 74 32 126 48 94 29
268 94 345 130 22 10 79 37 127 60 48 22 92 41 99 41 7 0 31 9 53 20 44 21
216 92 280 116 22 8 51 24 66 34 14 10 39 22 56 25 34 8 195 66 274 99 79 34
269 94 321 102 24 4 71 21 103 38 l60 31 295 0 c281 0 298 -1 346 -22 28 -12
79 -27 115 -33 36 -6 70 -16 75 -20 6 -5 46 -22 89 -39 103 -40 371 -188 414
-228 7 -7 17 -13 21 -13 4 0 16 -8 27 -18 11 -10 38 -32 60 -48 77 -56 170
-140 297 -268 70 -71 142 -140 159 -153 35 -25 89 -30 135 -12 15 6 75 17 133
25 140 18 135 17 232 63 100 47 111 66 78 131 -24 47 -144 192 -305 368 -90
98 -348 311 -455 376 -25 14 -85 52 -135 82 -167 103 -346 179 -504 214 -46
11 -106 28 -133 40 -50 21 -44 21 -448 33 -52 2 -169 0 -260 -4z m509 -37 c11
-18 192 -52 274 -52 19 0 27 -5 27 -17 0 -15 2 -16 10 -3 8 13 10 13 10 -1 0
-13 16 -19 63 -28 52 -9 126 -19 148 -21 3 0 11 -11 17 -25 9 -19 19 -25 42
-25 38 0 70 -16 70 -35 0 -8 20 -18 55 -25 33 -7 55 -17 55 -25 0 -20 46 -45
84 -45 28 0 35 -4 40 -25 4 -16 15 -27 31 -30 14 -3 36 -7 50 -10 14 -3 25
-12 25 -21 0 -8 16 -24 35 -35 19 -12 35 -26 35 -33 0 -6 18 -19 41 -29 23
-10 43 -27 46 -37 3 -12 20 -24 44 -32 27 -8 39 -17 39 -30 0 -10 10 -22 24
-28 13 -5 33 -22 45 -39 12 -16 30 -33 41 -36 10 -3 21 -14 24 -23 3 -10 20
-26 37 -36 17 -10 28 -20 25 -23 -3 -3 6 -17 20 -32 14 -14 33 -38 42 -53 18
-31 68 -54 76 -35 3 7 5 5 3 -3 -3 -25 25 -82 55 -110 15 -15 28 -32 28 -38 0
-6 8 -17 18 -24 9 -7 18 -18 19 -23 1 -6 5 -23 8 -38 7 -26 6 -27 -32 -27 -46
0 -156 -20 -163 -30 -15 -20 -60 -31 -148 -36 -53 -3 -113 -9 -132 -13 -32 -6
-100 13 -100 30 0 11 -108 119 -119 119 -6 0 -11 8 -11 18 0 10 -13 31 -30 47
-16 16 -30 25 -30 21 0 -5 -9 3 -21 18 -11 14 -27 26 -35 26 -8 0 -14 7 -14
15 0 8 -13 21 -30 30 -16 8 -34 24 -40 36 -6 11 -31 29 -56 39 -26 12 -44 26
-44 36 0 8 -13 21 -30 27 -16 6 -30 17 -30 24 0 7 -18 22 -40 33 -23 12 -43
27 -46 35 -3 7 -24 21 -46 30 -23 9 -53 25 -67 36 -55 43 -148 91 -183 96 -21
3 -38 8 -38 12 -1 19 -33 44 -60 47 -101 12 -156 25 -167 41 -7 9 -13 14 -13
10 0 -4 -9 -3 -21 4 -11 6 -61 15 -111 19 -52 5 -97 15 -106 23 -22 19 -53 26
-132 33 -36 3 -98 10 -138 15 -40 5 -78 9 -83 9 -5 0 -9 52 -9 118 l0 118 64
13 c49 10 69 19 80 37 14 20 26 24 88 27 122 7 380 0 387 -11z"/>
<path d="M7297 3374 c-1 -1 -40 -4 -87 -8 -47 -4 -116 -11 -155 -16 -38 -5
-135 -14 -215 -20 -88 -7 -169 -19 -206 -31 -47 -15 -94 -21 -195 -22 -104 -2
-142 -7 -169 -20 -43 -21 -65 -26 -150 -33 -43 -4 -87 -16 -130 -36 -36 -17
-92 -37 -125 -45 -33 -7 -81 -22 -107 -33 -25 -11 -82 -25 -125 -31 -43 -6
-109 -23 -148 -39 -38 -15 -94 -31 -124 -35 -29 -4 -72 -13 -95 -21 -22 -9
-91 -24 -152 -34 -61 -10 -145 -29 -185 -43 -41 -14 -96 -27 -124 -30 -27 -3
-86 -14 -130 -26 -44 -12 -138 -28 -210 -36 -71 -8 -155 -22 -185 -31 -30 -8
-138 -22 -240 -29 -102 -8 -219 -19 -260 -24 -119 -16 -527 -14 -607 3 -37 8
-142 19 -232 26 -131 9 -178 16 -230 36 -39 15 -104 29 -157 34 -58 5 -106 16
-132 29 -23 12 -65 26 -94 32 -29 6 -67 20 -84 30 -34 21 -89 25 -99 8 -11
-16 43 -86 76 -98 16 -6 42 -16 58 -22 16 -6 37 -19 47 -30 9 -10 36 -24 58
-30 23 -6 59 -24 80 -40 27 -19 52 -29 76 -29 20 0 59 -11 85 -25 27 -13 74
-30 105 -36 30 -6 75 -22 99 -36 33 -19 65 -27 130 -32 47 -4 124 -19 171 -34
47 -14 131 -31 187 -37 56 -6 126 -18 155 -26 104 -29 245 -37 723 -38 665 -1
721 2 885 43 25 6 108 16 185 21 176 13 211 17 277 35 29 9 121 22 203 29 101
10 165 21 195 34 25 11 70 23 100 27 91 11 172 27 230 45 30 10 89 21 130 25
41 3 108 17 150 30 83 26 106 31 195 40 106 11 129 14 185 29 82 21 123 25
385 32 454 12 762 4 865 -24 41 -11 95 -23 120 -27 25 -4 63 -15 85 -25 22
-10 69 -28 105 -40 79 -26 186 -75 195 -89 10 -18 25 -13 25 9 0 21 -27 40
-59 40 -11 0 -22 9 -26 19 -6 19 -33 30 -95 37 -68 8 -75 11 -85 33 -5 12 -21
24 -35 27 -14 2 -39 9 -56 14 -17 6 -43 10 -59 10 -16 0 -36 7 -45 15 -23 21
-129 33 -350 41 -107 3 -229 8 -270 9 -134 6 -284 4 -299 -4 -9 -5 -119 -11
-246 -14 -191 -4 -243 -9 -310 -26 -44 -12 -102 -24 -130 -26 -27 -2 -72 -9
-100 -15 -27 -6 -56 -11 -62 -12 -7 -1 -13 -5 -13 -8 0 -16 -61 -30 -170 -39
-117 -9 -165 -17 -184 -29 -6 -4 -13 -7 -16 -8 -3 0 -12 -3 -20 -7 -8 -3 -42
-8 -75 -10 -74 -7 -226 -36 -240 -47 -13 -10 -83 -18 -215 -25 -142 -7 -271
-26 -263 -38 3 -6 1 -7 -6 -3 -6 4 -17 3 -24 -3 -7 -5 -58 -11 -112 -12 -55
-1 -134 -5 -175 -10 -41 -5 -88 -9 -103 -9 -17 0 -26 -4 -22 -10 3 -5 1 -10
-4 -10 -6 0 -11 4 -11 8 0 4 -12 7 -27 6 -16 -1 -48 -3 -73 -4 -33 -1 -40 -4
-25 -9 17 -7 17 -8 -8 -13 -15 -3 -27 -1 -27 4 0 6 -21 7 -52 3 -108 -13 -258
-17 -258 -6 0 6 -12 11 -27 11 -15 0 -43 5 -62 11 -20 7 -43 14 -51 17 -8 2
-33 6 -55 8 -21 3 -42 9 -45 15 -4 5 -11 9 -16 8 -25 -4 -34 4 -34 30 0 25 3
28 25 23 17 -3 25 0 25 10 0 9 17 18 43 24 36 8 42 13 45 36 4 38 37 58 94 58
66 0 198 21 198 31 0 5 7 6 15 3 10 -4 15 0 15 12 0 15 2 16 9 5 7 -10 10 -10
13 -1 3 9 41 16 116 21 62 5 121 13 132 19 11 6 26 8 32 4 7 -4 8 -3 4 4 -10
17 28 29 114 37 41 4 83 9 94 12 12 2 27 5 34 5 6 1 12 5 12 10 0 5 4 6 10 3
5 -3 7 0 4 8 -6 16 23 22 171 33 95 7 128 15 151 38 7 8 46 20 85 26 53 9 73
17 76 30 4 14 21 19 91 24 129 11 152 15 212 43 30 13 78 29 105 33 84 15 95
18 110 33 14 14 43 19 190 33 39 3 76 11 83 16 6 6 12 7 12 2 0 -4 6 0 13 9 9
13 36 18 112 23 55 3 119 12 142 20 23 7 50 11 59 7 13 -5 15 -3 9 7 -6 10 -4
12 8 7 10 -3 17 -2 17 3 0 14 46 20 210 25 85 3 211 7 280 10 289 11 429 9
708 -10 35 -3 61 -1 58 4 -3 4 -26 9 -52 10 -26 0 -77 8 -113 17 -42 10 -129
18 -241 20 -96 3 -203 6 -238 7 -34 2 -64 2 -65 1z"/>
<path d="M8025 3310 c4 -6 11 -8 16 -4 6 3 18 0 27 -8 23 -19 77 -36 137 -42
48 -5 49 -5 20 8 -49 22 -136 46 -130 36 4 -6 1 -10 -4 -10 -6 0 -11 7 -11 15
0 10 -10 15 -31 15 -18 0 -28 -4 -24 -10z"/>
<path d="M8282 3232 c3 -15 15 -19 96 -37 26 -6 30 10 5 19 -99 34 -104 35
-101 18z"/>
<path d="M8470 3163 c1 -18 17 -31 50 -38 l35 -7 -34 26 c-35 26 -51 32 -51
19z"/>
<path d="M8564 3101 c8 -12 79 -51 93 -51 4 0 -4 11 -19 25 -28 26 -87 47 -74
26z"/>
<path d="M8700 3023 c1 -13 42 -56 73 -76 49 -32 40 -12 -18 37 -30 26 -55 44
-55 39z"/>
<path d="M8820 2907 c0 -8 11 -22 25 -31 37 -25 31 2 -7 33 -15 11 -18 11 -18
-2z"/>
<path d="M8906 2825 c4 -8 11 -15 16 -15 6 0 5 6 -2 15 -7 8 -14 15 -16 15 -2
0 -1 -7 2 -15z"/>
<path d="M8960 2770 c1 -19 49 -74 57 -66 4 3 0 12 -9 19 -8 6 -22 23 -32 37
-9 14 -16 18 -16 10z"/>
<path d="M9060 2648 c0 -9 5 -20 10 -23 13 -8 13 5 0 25 -8 13 -10 13 -10 -2z"/>
<path d="M9100 2581 c0 -6 4 -13 10 -16 6 -3 7 1 4 9 -7 18 -14 21 -14 7z"/>
<path d="M8730 2575 c0 -3 29 -23 65 -46 36 -22 65 -44 65 -48 0 -3 16 -15 35
-25 19 -11 35 -23 35 -28 0 -4 6 -8 13 -8 7 0 30 -18 52 -40 46 -45 58 -49 53
-18 -2 13 -14 25 -30 30 -14 5 -43 25 -63 44 -20 19 -40 32 -44 29 -5 -2 -13
6 -18 18 -6 12 -23 29 -39 37 -16 8 -37 25 -47 38 -12 14 -29 22 -48 22 -16 0
-29 -2 -29 -5z"/>
<path d="M1376 2560 c-15 -5 -36 -15 -45 -23 -9 -8 -34 -20 -56 -27 -75 -23
-147 -79 -203 -157 -59 -81 -66 -120 -22 -115 14 1 35 14 48 28 13 15 41 30
65 36 23 5 53 19 65 31 22 20 33 22 134 20 97 -1 114 -4 137 -22 14 -12 41
-28 59 -36 18 -9 60 -37 93 -63 33 -26 72 -54 86 -63 53 -35 189 -279 213
-384 7 -28 21 -73 31 -101 18 -46 19 -73 16 -275 -2 -175 -6 -234 -19 -269 -9
-25 -26 -76 -38 -115 -12 -38 -36 -97 -53 -130 -47 -93 -142 -228 -173 -247
-16 -10 -49 -36 -74 -58 -43 -39 -44 -41 -26 -55 32 -25 98 -19 126 10 13 14
29 25 36 25 7 0 28 13 46 29 18 15 47 35 63 44 30 15 150 142 192 202 23 34
54 114 83 215 10 36 26 83 34 105 8 22 15 57 16 77 0 21 7 86 16 144 17 114
15 141 -21 379 -25 167 -100 365 -187 494 -43 64 -135 161 -183 193 -58 40
-63 43 -146 82 -72 34 -80 36 -180 35 -57 0 -117 -5 -133 -9z"/>
<path d="M9130 2537 c0 -8 7 -20 15 -27 12 -10 15 -10 15 3 0 8 -7 20 -15 27
-12 10 -15 10 -15 -3z"/>
<path d="M9220 2391 c0 -6 4 -12 8 -15 5 -3 9 1 9 9 0 8 -4 15 -9 15 -4 0 -8
-4 -8 -9z"/>
<path d="M9070 2320 c8 -5 11 -10 5 -10 -12 0 16 -20 29 -20 5 0 1 9 -9 20
-10 11 -23 20 -29 20 -6 0 -4 -5 4 -10z"/>
<path d="M9266 2307 c3 -10 9 -15 12 -12 3 3 0 11 -7 18 -10 9 -11 8 -5 -6z"/>
<path d="M7960 2279 c0 -6 -4 -8 -9 -4 -5 3 -12 2 -15 -3 -8 -13 27 -11 43 2
11 8 13 8 8 -1 -11 -18 1 -23 94 -42 44 -9 61 -20 54 -32 -7 -10 35 -29 63
-29 12 0 9 7 -13 24 -16 13 -33 22 -37 20 -4 -2 -9 0 -13 6 -17 27 -175 80
-175 59z"/>
<path d="M7723 2256 c-29 -12 -53 -24 -53 -28 0 -4 6 -6 13 -3 6 2 30 6 52 9
52 6 72 14 79 32 7 19 -25 15 -91 -10z"/>
<path d="M9130 2256 c0 -15 28 -42 35 -34 9 8 -5 36 -21 42 -8 3 -14 -1 -14
-8z"/>
<path d="M9306 2205 c4 -8 8 -15 10 -15 2 0 4 7 4 15 0 8 -4 15 -10 15 -5 0
-7 -7 -4 -15z"/>
<path d="M7602 2196 c-37 -21 -37 -26 1 -26 26 0 39 6 47 20 9 17 8 20 -7 19
-10 -1 -28 -7 -41 -13z"/>
<path d="M9204 2181 c21 -23 26 -26 26 -11 0 5 -10 15 -22 21 -23 12 -23 12
-4 -10z"/>
<path d="M8233 2145 c18 -37 76 -99 100 -108 9 -3 17 -13 17 -20 0 -8 9 -22
20 -32 11 -10 20 -23 20 -30 0 -6 11 -22 25 -35 14 -13 25 -31 25 -39 0 -21
17 -47 26 -39 7 8 -46 106 -90 163 -17 22 -59 69 -94 105 -47 48 -60 57 -49
35z"/>
<path d="M7515 2130 c-20 -22 -16 -34 9 -24 9 3 16 15 16 25 0 24 -3 24 -25
-1z"/>
<path d="M7650 2123 c-8 -3 -22 -15 -31 -26 -14 -17 -30 -21 -82 -23 -71 -2
-87 -8 -87 -29 0 -9 6 -12 16 -8 9 3 19 0 24 -7 6 -9 13 -9 31 3 43 28 189 59
250 54 62 -5 153 -30 215 -57 87 -39 234 -201 315 -349 15 -27 25 -38 27 -28
2 9 -2 26 -9 39 -8 13 -12 26 -11 31 1 4 -2 7 -7 7 -8 0 -23 31 -26 50 -1 9
-40 63 -67 92 -16 16 -28 34 -28 39 0 5 -15 19 -34 30 -19 11 -36 29 -39 40
-3 11 -14 23 -25 26 -11 3 -22 13 -25 24 -6 24 -64 49 -111 49 -19 0 -41 7
-50 15 -8 8 -26 19 -41 25 -27 10 -178 13 -205 3z"/>
<path d="M7440 1995 c0 -8 5 -15 10 -15 6 0 10 7 10 15 0 8 -4 15 -10 15 -5 0
-10 -7 -10 -15z"/>
<path d="M8470 1814 c0 -9 11 -38 24 -65 14 -27 30 -74 35 -106 6 -31 15 -61
20 -66 5 -5 7 -15 4 -23 -2 -7 0 -21 6 -31 20 -34 0 99 -26 172 -14 39 -30 85
-36 103 -11 34 -27 43 -27 16z"/>
<path d="M8333 1615 c4 -9 10 -28 13 -41 3 -13 10 -22 14 -19 12 7 -4 68 -19
73 -10 3 -12 0 -8 -13z"/>
<path d="M3050 1560 c-25 -4 -62 -15 -82 -23 l-38 -16 0 -133 c0 -73 -3 -190
-7 -259 -7 -144 -13 -135 87 -141 l55 -3 5 62 c3 34 8 64 12 68 3 3 30 -28 59
-69 29 -42 59 -76 67 -76 8 0 35 16 58 36 51 41 51 36 -26 143 l-49 65 34 37
c47 52 65 91 65 139 0 81 -50 149 -125 169 -44 12 -50 12 -115 1z m140 -40
c48 -25 70 -64 70 -125 0 -56 -18 -92 -64 -133 -20 -17 -36 -36 -36 -42 0 -5
27 -46 60 -91 l61 -81 -33 -24 c-17 -13 -34 -24 -37 -24 -3 1 -37 43 -74 95
-38 53 -73 93 -78 90 -5 -4 -9 -39 -9 -78 0 -40 -4 -77 -8 -84 -5 -8 -22 -10
-50 -6 l-42 6 0 238 c0 165 3 240 11 245 22 13 105 32 147 33 25 1 59 -7 82
-19z"/>
<path d="M3056 1434 c-3 -9 -6 -45 -6 -80 0 -80 14 -89 69 -45 52 42 69 82 47
116 -13 20 -25 25 -60 25 -31 0 -46 -5 -50 -16z m75 -14 c10 -6 19 -17 19 -25
0 -16 -48 -75 -61 -75 -5 0 -9 22 -9 49 0 43 5 54 28 60 2 1 12 -4 23 -9z"/>
<path d="M2503 1537 c-17 -7 -34 -15 -37 -18 -3 -3 -7 -120 -8 -260 l-3 -254
66 -8 c89 -12 139 3 194 57 130 130 120 392 -18 476 -37 23 -141 26 -194 7z
m184 -33 c109 -70 125 -281 30 -406 -41 -54 -88 -78 -154 -78 -85 0 -80 -18
-77 248 l2 237 53 12 c60 13 113 9 146 -13z"/>
<path d="M2587 1433 c-4 -3 -7 -78 -7 -165 0 -151 1 -158 20 -158 51 0 98 136
80 233 -13 66 -66 118 -93 90z m58 -63 c26 -51 15 -161 -21 -200 -12 -12 -14
4 -14 108 0 126 7 146 35 92z"/>
<path d="M3503 1538 c-51 -6 -83 -15 -87 -23 -10 -26 -18 -431 -9 -470 l9 -40
64 -8 c70 -9 186 5 215 27 15 10 16 20 8 67 l-9 54 -72 -3 -72 -3 0 29 c0 25
5 30 31 36 17 3 50 6 72 6 l40 0 -6 55 c-3 30 -8 59 -12 65 -3 5 -31 10 -61
10 -53 0 -54 0 -54 30 0 29 0 29 68 32 l67 3 0 70 0 70 -55 1 c-30 1 -92 -3
-137 -8z m177 -63 l0 -44 -72 -3 -73 -3 -3 -58 -3 -58 63 3 62 3 6 -36 c6 -36
6 -37 -29 -43 -20 -3 -51 -6 -68 -6 l-33 0 0 -61 0 -61 73 4 72 3 3 -36 c3
-34 1 -36 -36 -47 -42 -13 -152 -16 -191 -5 l-23 6 4 228 c2 125 7 231 11 236
11 10 88 20 170 22 l67 1 0 -45z"/>
<path d="M3913 1538 c-11 -14 -133 -511 -133 -540 0 -13 13 -18 54 -23 85 -11
89 -8 106 65 14 58 19 65 43 68 21 3 27 -2 31 -20 16 -79 13 -75 62 -82 86
-11 104 -9 104 17 0 13 -18 117 -41 233 -22 115 -43 224 -46 241 -6 36 -11 39
-104 48 -48 5 -68 3 -76 -7z m148 -36 c7 -7 89 -429 89 -457 0 -13 -9 -16 -47
-13 -48 3 -48 3 -59 48 l-11 45 -50 3 c-57 3 -51 10 -69 -90 -6 -38 -7 -38
-53 -38 -26 0 -50 2 -53 5 -3 3 21 108 52 233 32 125 60 240 64 256 l7 28 62
-6 c34 -4 65 -10 68 -14z"/>
<path d="M3986 1361 c-12 -19 -36 -133 -30 -143 8 -13 54 -9 59 5 9 22 -19
154 -29 138z"/>
<path d="M4547 1544 c-2 -5 -10 -36 -17 -69 -18 -88 -26 -97 -39 -45 -24 93
-34 100 -146 100 l-53 0 -8 -42 c-10 -59 -9 -467 2 -478 5 -5 38 -10 74 -12
l65 -3 3 39 c2 23 7 35 11 28 4 -7 30 -15 57 -18 l50 -6 16 38 16 39 1 -56 c1
-42 5 -58 17 -63 26 -10 122 -7 129 4 12 19 8 521 -4 533 -13 13 -166 23 -174
11z m155 -79 c8 -65 10 -349 2 -407 l-6 -45 -47 5 c-25 2 -47 5 -48 6 -1 1 3
62 8 136 8 119 6 190 -6 178 -2 -2 -16 -48 -30 -103 -43 -167 -43 -165 -76
-165 -35 0 -38 6 -69 150 -34 160 -43 150 -36 -37 l7 -163 -45 0 c-44 0 -45 1
-52 36 -7 37 -1 441 7 448 2 2 33 1 69 -3 l65 -6 21 -87 c30 -121 34 -129 45
-99 6 14 19 63 30 110 12 47 22 91 24 96 1 6 28 8 66 5 l64 -5 7 -50z"/>
<path d="M4856 1498 c-23 -22 -25 -29 -27 -143 -5 -247 -1 -313 21 -335 13
-13 33 -20 61 -20 36 0 48 7 103 60 35 33 66 60 71 60 5 0 36 -27 71 -60 55
-53 67 -60 103 -60 83 0 94 37 89 299 l-3 173 -28 24 c-36 30 -78 31 -113 1
-24 -21 -28 -32 -32 -106 l-5 -82 -23 16 c-30 19 -88 19 -118 0 l-24 -16 -4
82 c-3 74 -6 83 -31 105 -35 30 -78 31 -111 2z m106 -15 c15 -13 18 -32 18
-115 0 -54 3 -98 7 -98 4 0 20 12 35 27 20 19 39 27 63 27 24 0 43 -8 63 -27
15 -15 31 -27 35 -27 4 0 7 42 7 93 0 114 12 137 70 137 66 0 70 -13 70 -247
0 -190 -1 -204 -20 -223 -39 -39 -75 -27 -154 49 l-71 70 -71 -70 c-79 -76
-111 -87 -152 -49 -21 20 -22 28 -22 223 0 232 4 247 67 247 20 0 45 -7 55
-17z"/>
<path d="M5446 1499 l-26 -20 0 -220 c0 -206 1 -220 20 -239 26 -26 89 -27
120 -2 18 15 23 31 27 89 l6 72 51 -6 c28 -3 54 -11 58 -17 4 -6 8 -35 8 -63
0 -40 5 -58 20 -73 26 -26 89 -27 121 -1 24 19 24 23 27 222 2 134 -1 211 -8
229 -21 50 -88 65 -134 29 -22 -18 -26 -28 -26 -74 0 -67 -16 -85 -76 -85
l-44 0 0 49 c0 65 -16 106 -46 120 -37 16 -68 14 -98 -10z m106 -16 c15 -13
18 -32 18 -106 0 -90 0 -90 20 -72 13 11 41 20 75 23 l55 4 0 62 c0 79 17 106
67 106 71 0 73 -8 73 -237 0 -113 -4 -212 -10 -223 -22 -41 -112 -31 -124 13
-3 12 -6 48 -6 80 l0 57 -52 0 c-39 0 -57 5 -75 22 l-23 21 0 -91 c0 -98 -8
-116 -57 -128 -17 -5 -33 0 -51 13 l-27 20 -3 203 c-3 234 1 250 65 250 20 0
45 -7 55 -17z"/>
<path d="M5975 1495 c-25 -24 -25 -25 -25 -233 0 -197 1 -211 21 -236 l20 -26
185 0 c183 0 185 0 209 25 39 38 28 115 -19 137 l-25 11 19 25 c11 13 20 37
20 53 0 32 -19 79 -32 79 -4 0 -8 5 -8 10 0 6 6 10 14 10 24 0 56 50 56 87 0
23 -8 42 -25 58 -24 25 -26 25 -205 25 -179 0 -181 0 -205 -25z m396 -5 c14
-8 19 -21 19 -54 0 -64 -12 -70 -159 -76 -111 -4 -126 -7 -129 -23 -2 -10 -1
-25 2 -34 6 -14 8 -14 20 3 11 15 30 19 93 22 90 4 130 -8 143 -43 10 -27 -2
-74 -23 -87 -7 -4 -52 -8 -101 -8 -69 0 -94 4 -108 16 -16 15 -18 15 -24 1 -3
-9 -4 -24 -2 -34 3 -16 17 -18 128 -21 143 -3 160 -11 160 -73 0 -63 -17 -69
-211 -69 -231 0 -214 -20 -214 250 0 198 1 213 19 226 24 17 355 20 387 4z"/>
<path d="M6524 1508 c-39 -18 -44 -50 -44 -259 0 -267 -16 -249 230 -249 179
0 181 0 205 25 17 16 25 35 25 60 0 36 -35 85 -60 85 -6 0 -2 12 9 26 13 16
21 41 21 64 0 23 -8 48 -21 64 -15 19 -17 26 -6 26 7 0 23 10 35 23 31 33 30
90 -3 122 -24 25 -26 25 -197 24 -97 0 -182 -5 -194 -11z m387 -24 c19 -23 16
-81 -4 -102 -15 -14 -40 -18 -142 -20 l-125 -4 0 -34 0 -35 29 22 c25 18 39
21 111 17 73 -3 84 -6 102 -28 14 -17 18 -33 14 -55 -10 -47 -29 -55 -132 -55
-85 0 -94 2 -108 22 -16 22 -16 21 -16 -20 l0 -42 123 0 c143 0 161 -7 161
-65 0 -27 -6 -43 -23 -56 -21 -17 -42 -19 -190 -19 -135 0 -171 3 -189 16 -22
15 -22 19 -22 226 0 183 2 214 17 230 14 16 34 18 198 18 155 0 185 -2 196
-16z"/>
<path d="M7043 1496 l-28 -24 0 -217 c0 -278 -20 -255 231 -255 171 0 185 1
204 20 31 31 28 102 -6 129 -23 18 -41 21 -139 21 l-112 0 -7 31 c-3 17 -6 87
-6 155 0 121 0 123 -26 143 -35 28 -77 26 -111 -3z m108 -12 c10 -12 15 -62
19 -173 l5 -156 125 -3 c113 -2 127 -4 143 -23 24 -30 21 -66 -8 -94 -24 -25
-27 -25 -195 -25 -227 0 -210 -20 -210 243 0 233 4 247 69 247 24 0 44 -6 52
-16z"/>
<path d="M7660 1508 c-82 -24 -129 -96 -117 -183 9 -65 31 -100 79 -129 40
-24 41 -26 16 -26 -85 0 -130 -89 -73 -146 25 -25 27 -25 173 -22 119 2 154 7
185 22 98 49 105 228 11 289 -42 27 -43 37 -4 37 44 0 70 31 70 84 0 36 -5 48
-26 65 -24 19 -40 21 -153 20 -69 0 -142 -5 -161 -11z m311 -24 c19 -23 16
-81 -4 -102 -15 -14 -40 -18 -142 -20 -94 -3 -125 -7 -125 -17 0 -9 25 -14 88
-17 147 -7 196 -47 196 -160 1 -65 -19 -100 -75 -133 -28 -16 -57 -20 -166
-23 -159 -5 -183 4 -183 67 0 62 17 70 155 73 99 2 120 6 120 18 0 12 -19 16
-90 21 -97 6 -117 13 -154 53 -33 35 -41 127 -16 179 29 62 75 77 241 77 117
0 144 -3 155 -16z"/>
<path d="M8570 1499 c-4 -125 -3 -456 2 -451 12 13 24 128 21 217 -2 108 -12
227 -18 234 -3 2 -5 2 -5 0z"/>
<path d="M8388 1430 c2 -16 9 -30 14 -30 6 0 7 7 4 16 -3 9 -6 22 -6 30 0 8
-4 14 -8 14 -5 0 -7 -13 -4 -30z"/>
<path d="M8549 1003 c-6 -16 -17 -60 -23 -98 -7 -39 -19 -82 -26 -95 -8 -14
-17 -46 -20 -72 -5 -39 -4 -45 7 -36 7 6 13 17 13 24 0 8 4 22 9 32 15 28 51
165 51 194 0 15 4 38 10 52 6 17 6 26 0 26 -6 0 -15 -12 -21 -27z"/>
<path d="M8395 880 c-4 -17 -5 -34 -2 -36 3 -3 8 9 12 26 4 17 5 34 2 36 -3 3
-8 -9 -12 -26z"/>
<path d="M8357 713 c-14 -50 -17 -77 -8 -62 11 17 24 79 17 79 -3 0 -7 -8 -9
-17z"/>
<path d="M8428 653 c-9 -10 -18 -27 -22 -38 -3 -11 -17 -32 -30 -46 -27 -29
-43 -69 -27 -69 11 0 111 144 111 160 0 15 -15 12 -32 -7z"/>
<path d="M8313 593 c-7 -20 -8 -33 -2 -33 13 0 22 24 17 47 -3 13 -7 9 -15
-14z"/>
<path d="M8283 472 c-17 -5 -20 -11 -13 -22 8 -13 13 -12 32 8 23 23 20 25
-19 14z"/>
</g>
</svg>
